<svg xmlns="http://www.w3.org/2000/svg" width="430" height="430" fill="none" viewBox="0 0 430 430"><mask id="7d7gpCNHPGa" width="365" height="340" x="20" y="50" maskUnits="userSpaceOnUse" style="mask-type:alpha"><path fill="#D9D9D9" d="M385 50H20v340h365v-71.481c-4.176 5.272-9.59 9.703-16.073 12.813l-82.769 39.74-40.028-82.664c-11.043-22.804-1.468-50.194 21.404-61.096 11.422-5.479 23.995-5.82 35.093-1.941s20.72 11.979 26.241 23.381l.028.057.057-.027c13.093-6.317 27.712-5.848 39.876.014 6.206 2.979 11.777 7.33 16.171 12.909z"/></mask><g mask="url(#7d7gpCNHPGa)"><path stroke="#121331" stroke-linecap="round" stroke-linejoin="round" stroke-miterlimit="14" stroke-width="18" d="M350.896 214.136c15.56-22.175 20.649-48.528 16.296-73.215s-18.148-47.71-40.354-63.226c-18.909-13.377-40.915-18.921-62.385-17.565-28.795 1.774-56.531 16.186-74.331 41.671l-.078.111-.111-.078c-22.206-15.515-48.605-20.576-73.342-16.215s-47.813 18.147-63.373 40.322c-31.232 44.273-20.449 105.426 23.964 136.458l160.996 112.49z"/></g><path stroke="#e83a30" stroke-linecap="round" stroke-linejoin="round" stroke-miterlimit="14" stroke-width="18" d="M368.927 331.332c11.422-5.479 19.523-15.056 23.388-26.113s3.494-23.596-2.027-34.998c-4.664-9.776-12.382-17.068-21.459-21.425-12.164-5.862-26.783-6.331-39.876-.014l-.057.027-.028-.057c-5.521-11.402-15.143-19.502-26.241-23.381s-23.671-3.538-35.093 1.941c-22.872 10.902-32.447 38.292-21.404 61.096l40.028 82.664z"/></svg>